<svg xmlns="http://www.w3.org/2000/svg" xmlns:xlink="http://www.w3.org/1999/xlink" viewBox="0 0 315.65 356.13"><defs><style>.cls-1{fill:url(#linear-gradient);}.cls-2{fill:#fff;}</style><linearGradient id="linear-gradient" x1="56.23" y1="85.41" x2="259.46" y2="270.75" gradientUnits="userSpaceOnUse"><stop offset="0" stop-color="#ff1919"/><stop offset="1" stop-color="#00cc38"/></linearGradient></defs><g id="Layer_2" data-name="Layer 2"><g id="Layer_1-2" data-name="Layer 1"><path class="cls-1" d="M0,102.54V253.59A27,27,0,0,0,13.51,277l130.81,75.53a27.05,27.05,0,0,0,27,0L302.15,277a27,27,0,0,0,13.5-23.39v-151a27,27,0,0,0-13.5-23.4L171.34,3.62a27,27,0,0,0-27,0L13.51,79.14A27,27,0,0,0,0,102.54Z"/><path class="cls-2" d="M80.94,203l1-1.34,3.34-4.33,72.5,56.13,45.49-35.22L65.68,161.4a19.78,19.78,0,0,1-4.57-33.92L145.72,62a19.81,19.81,0,0,1,24.22,0l84.58,65.48L251,132,250,133.38l-3,3.89L162.36,71.79a7.43,7.43,0,0,0-9.09,0L68.69,137.27A7.39,7.39,0,0,0,70.4,150l151.3,62.51a3.8,3.8,0,0,1,.87,6.51L160.15,267.3a3.8,3.8,0,0,1-4.65,0L77.77,207.14"/><path class="cls-2" d="M254.52,228.64l-84.58,65.48a19.78,19.78,0,0,1-24.22,0L61.11,228.64l3.46-4.46,1.05-1.35,3.07-4,84.58,65.48a7.48,7.48,0,0,0,4.56,1.55,7.39,7.39,0,0,0,4.53-1.55L247,218.87a7.39,7.39,0,0,0,2.8-6.85,7.48,7.48,0,0,0-4.51-5.88L93.94,143.66a3.8,3.8,0,0,1-.88-6.51L155.5,88.82a3.8,3.8,0,0,1,4.65,0L237.88,149l-3.23,4.19-1.07,1.37-3.26,4.21-72.49-56.1-45.49,35.22L250,194.71a19.77,19.77,0,0,1,4.55,33.93Z"/></g></g></svg>