<?xml version="1.0" encoding="UTF-8"?>
<svg id="Layer_2" data-name="Layer 2" xmlns="http://www.w3.org/2000/svg" viewBox="0 0 521.4 375.42">
  <defs>
    <style>
      .cls-1 {
        letter-spacing: -.04em;
      }

      .cls-1, .cls-2, .cls-3, .cls-4 {
        fill: red;
      }

      .cls-5, .cls-6, .cls-7 {
        fill: #009429;
      }

      .cls-5, .cls-3 {
        letter-spacing: -.04em;
      }

      .cls-8 {
        fill: none;
        stroke: #009429;
        stroke-miterlimit: 10;
        stroke-width: 12.69px;
      }

      .cls-2 {
        letter-spacing: -.05em;
      }

      .cls-7 {
        letter-spacing: -.06em;
      }

      .cls-9 {
        font-family: Switzer-Bold, Switzer;
        font-size: 83.48px;
        font-weight: 700;
      }
    </style>
  </defs>
  <g id="Layer_1-2" data-name="Layer 1">
    <g>
      <text class="cls-9" transform="translate(0 355.55)"><tspan class="cls-3" x="0" y="0">Sha</tspan><tspan class="cls-2" x="140.99" y="0">r</tspan><tspan class="cls-1" x="170.88" y="0">e</tspan><tspan class="cls-5" x="216.54" y="0">Sans</tspan><tspan class="cls-7" x="399.52" y="0">k</tspan><tspan class="cls-5" x="442.43" y="0">ar</tspan></text>
      <g>
        <path class="cls-8" d="m147.72,79.75v108.12c0,6.91,3.69,13.29,9.67,16.75l93.64,54.06c5.98,3.45,13.36,3.45,19.34,0l93.64-54.06c5.98-3.45,9.67-9.84,9.67-16.75v-108.12c0-6.91-3.69-13.29-9.67-16.75l-93.64-54.06c-5.98-3.45-13.36-3.45-19.34,0l-93.64,54.06c-5.98,3.45-9.67,9.84-9.67,16.75Z"/>
        <g>
          <path class="cls-6" d="m205.66,151.67l.75-.96,2.4-3.1,51.89,40.17,32.56-25.21-98.52-40.7c-4.68-1.92-7.97-6.19-8.64-11.2-.67-5,1.37-9.99,5.36-13.09l60.56-46.87c5.1-3.94,12.22-3.94,17.34,0l60.55,46.87-2.51,3.26-.75.96-2.15,2.79-60.56-46.87c-1.91-1.48-4.58-1.48-6.5,0l-60.55,46.87c-1.5,1.16-2.27,3.02-2.02,4.91.26,1.87,1.48,3.47,3.24,4.19l108.3,44.74c1.93.8,2.28,3.38.63,4.66l-44.68,34.58c-.98.76-2.35.76-3.33,0l-55.64-43.06"/>
          <path class="cls-4" d="m329.91,170.01l-60.55,46.87c-2.56,1.97-5.62,2.97-8.67,2.97s-6.11-.99-8.67-2.97l-60.56-46.87,2.48-3.19.75-.96,2.2-2.84,60.55,46.87c.96.73,2.1,1.11,3.26,1.11s2.3-.37,3.24-1.11l60.56-46.87c1.5-1.16,2.27-3.03,2-4.91-.24-1.87-1.48-3.47-3.23-4.2l-108.32-44.72c-1.93-.8-2.28-3.38-.63-4.66l44.7-34.6c.98-.76,2.35-.76,3.33,0l55.64,43.08-2.31,3-.77.98-2.33,3.02-51.89-40.16-32.56,25.21,98.52,40.68c4.68,1.94,7.95,6.21,8.64,11.21.67,5-1.39,9.99-5.38,13.07Z"/>
        </g>
      </g>
    </g>
  </g>
</svg>