<svg xmlns="http://www.w3.org/2000/svg" xmlns:xlink="http://www.w3.org/1999/xlink" viewBox="0 0 529.71 374.96"><defs><style>.cls-1{font-size:84.81px;fill:red;font-family:Switzer-Bold, Switzer;font-weight:700;letter-spacing:-0.04em;}.cls-2{letter-spacing:-0.05em;}.cls-3,.cls-4{fill:#009429;}.cls-4{letter-spacing:-0.06em;}.cls-5{fill:url(#linear-gradient);}.cls-6{fill:#fff;}</style><linearGradient id="linear-gradient" x1="190.97" y1="62.11" x2="338.77" y2="196.9" gradientUnits="userSpaceOnUse"><stop offset="0" stop-color="#ff1919"/><stop offset="1" stop-color="#00cc38"/></linearGradient></defs><g id="Layer_2" data-name="Layer 2"><g id="Layer_1-2" data-name="Layer 1"><text class="cls-1" transform="translate(0 354.78)">Sha<tspan class="cls-2" x="143.24" y="0">r</tspan><tspan x="173.6" y="0">e</tspan><tspan class="cls-3" x="219.99" y="0">Sans</tspan><tspan class="cls-4" x="405.89" y="0">k</tspan><tspan class="cls-3" x="449.48" y="0">ar</tspan></text><path class="cls-5" d="M150.08,74.57V184.42a19.63,19.63,0,0,0,9.82,17L255,256.35a19.65,19.65,0,0,0,19.65,0l95.13-54.92a19.63,19.63,0,0,0,9.82-17V74.57a19.65,19.65,0,0,0-9.82-17L274.68,2.63a19.65,19.65,0,0,0-19.65,0L159.9,57.55A19.65,19.65,0,0,0,150.08,74.57Z"/><path class="cls-6" d="M208.94,147.65l.76-1,2.43-3.15,52.73,40.82,33.08-25.62L197.85,117.38a14.38,14.38,0,0,1-3.33-24.67l61.53-47.62a14.39,14.39,0,0,1,17.61,0l61.52,47.62L332.63,96l-.77,1-2.18,2.84L268.15,52.21a5.39,5.39,0,0,0-6.61,0L200,99.83a5.38,5.38,0,0,0,1.24,9.24l110,45.45a2.76,2.76,0,0,1,.64,4.73l-45.4,35.14a2.75,2.75,0,0,1-3.37,0l-56.53-43.75"/><path class="cls-6" d="M335.18,166.27l-61.52,47.62a14.35,14.35,0,0,1-17.61,0l-61.53-47.62L197,163l.77-1,2.23-2.88,61.51,47.62a5.5,5.5,0,0,0,3.32,1.13,5.44,5.44,0,0,0,3.29-1.13l61.53-47.62a5.41,5.41,0,0,0-1.24-9.26l-110-45.43a2.76,2.76,0,0,1-.63-4.74l45.41-35.15a2.75,2.75,0,0,1,3.37,0l56.53,43.76-2.35,3.05-.78,1-2.37,3.07-52.71-40.8-33.09,25.61L331.86,141.6a14.38,14.38,0,0,1,3.32,24.67Z"/></g></g></svg>