<svg xmlns="http://www.w3.org/2000/svg" xmlns:xlink="http://www.w3.org/1999/xlink" viewBox="0 0 704.76 173.28"><defs><style>.cls-1{fill:url(#linear-gradient);}.cls-2{fill:#fff;}.cls-3{font-size:83.48px;fill:red;font-family:Switzer-Bold, Switzer;font-weight:700;letter-spacing:-0.04em;}.cls-4{letter-spacing:-0.05em;}.cls-5{letter-spacing:-0.04em;}.cls-6,.cls-7{fill:#009429;}.cls-7{letter-spacing:-0.06em;}</style><linearGradient id="linear-gradient" x1="27.36" y1="41.56" x2="126.24" y2="131.74" gradientUnits="userSpaceOnUse"><stop offset="0" stop-color="#ff1919"/><stop offset="1" stop-color="#00cc38"/></linearGradient></defs><g id="Layer_2" data-name="Layer 2"><g id="Layer_1-2" data-name="Layer 1"><path class="cls-1" d="M0,49.89v73.49a13.17,13.17,0,0,0,6.57,11.39l63.65,36.75a13.19,13.19,0,0,0,13.15,0L147,134.77a13.14,13.14,0,0,0,6.57-11.39V49.89A13.14,13.14,0,0,0,147,38.51L83.37,1.76a13.15,13.15,0,0,0-13.15,0L6.57,38.51A13.16,13.16,0,0,0,0,49.89Z"/><path class="cls-2" d="M39.38,98.78l.51-.65L41.52,96l35.27,27.31,22.14-17.14L32,78.53A9.62,9.62,0,0,1,29.73,62L70.9,30.17a9.62,9.62,0,0,1,11.79,0L123.84,62l-1.7,2.21-.51.65-1.47,1.9L79,34.93a3.6,3.6,0,0,0-4.42,0L33.42,66.79A3.6,3.6,0,0,0,34.25,73l73.62,30.41a1.85,1.85,0,0,1,.42,3.17L77.92,130.06a1.86,1.86,0,0,1-2.26,0L37.84,100.79"/><path class="cls-2" d="M123.84,111.25,82.69,143.11a9.65,9.65,0,0,1-11.79,0L29.73,111.25l1.69-2.18.51-.65,1.49-1.93,41.16,31.86a3.59,3.59,0,0,0,4.42,0l41.16-31.86a3.61,3.61,0,0,0-.83-6.19L45.71,69.9a1.85,1.85,0,0,1-.43-3.17L75.66,43.22a1.83,1.83,0,0,1,2.26,0l37.82,29.27-1.57,2-.52.67-1.58,2L76.79,50,54.66,67.09l67,27.65a9.62,9.62,0,0,1,2.21,16.51Z"/><text class="cls-3" transform="translate(183.36 112.33)">Sha<tspan class="cls-4" x="140.99" y="0">r</tspan><tspan class="cls-5" x="170.88" y="0">e</tspan><tspan class="cls-6" x="216.54" y="0">Sans</tspan><tspan class="cls-7" x="399.52" y="0">k</tspan><tspan class="cls-6" x="442.43" y="0">ar</tspan></text></g></g></svg>