<?xml version="1.0" encoding="UTF-8"?>
<svg id="Layer_2" data-name="Layer 2" xmlns="http://www.w3.org/2000/svg" viewBox="0 0 705.69 173.28">
  <defs>
    <style>
      .cls-1 {
        letter-spacing: -.04em;
      }

      .cls-1, .cls-2, .cls-3, .cls-4 {
        fill: red;
      }

      .cls-5, .cls-6, .cls-7 {
        fill: #009429;
      }

      .cls-5, .cls-3 {
        letter-spacing: -.04em;
      }

      .cls-2 {
        letter-spacing: -.05em;
      }

      .cls-8 {
        fill: none;
        stroke: #009429;
        stroke-miterlimit: 10;
        stroke-width: 8.22px;
      }

      .cls-7 {
        letter-spacing: -.06em;
      }

      .cls-9 {
        font-family: Switzer-Bold, Switzer;
        font-size: 83.48px;
        font-weight: 700;
      }
    </style>
  </defs>
  <g id="Layer_1-2" data-name="Layer 1">
    <g>
      <text class="cls-9" transform="translate(184.29 112.33)"><tspan class="cls-3" x="0" y="0">Sha</tspan><tspan class="cls-2" x="140.99" y="0">r</tspan><tspan class="cls-1" x="170.88" y="0">e</tspan><tspan class="cls-5" x="216.54" y="0">Sans</tspan><tspan class="cls-7" x="399.52" y="0">k</tspan><tspan class="cls-5" x="442.43" y="0">ar</tspan></text>
      <g>
        <path class="cls-8" d="m4.11,51.63v70.01c0,4.47,2.39,8.61,6.26,10.85l60.63,35c3.87,2.24,8.65,2.24,12.52,0l60.63-35c3.87-2.24,6.26-6.37,6.26-10.85V51.63c0-4.47-2.39-8.61-6.26-10.85L83.52,5.79c-3.87-2.24-8.65-2.24-12.52,0L10.37,40.79c-3.87,2.24-6.26,6.37-6.26,10.85Z"/>
        <g>
          <path class="cls-6" d="m41.62,98.21l.49-.62,1.55-2.01,33.6,26.01,21.08-16.33-63.79-26.35c-3.03-1.25-5.16-4.01-5.59-7.25s.89-6.47,3.47-8.47l39.21-30.35c3.3-2.55,7.91-2.55,11.23,0l39.2,30.35-1.63,2.11-.49.62-1.39,1.8-39.21-30.35c-1.23-.96-2.97-.96-4.21,0l-39.2,30.35c-.97.75-1.47,1.95-1.31,3.18.17,1.21.96,2.25,2.1,2.71l70.12,28.97c1.25.52,1.47,2.19.41,3.02l-28.93,22.39c-.63.49-1.52.49-2.15,0l-36.03-27.88"/>
          <path class="cls-4" d="m122.08,110.08l-39.2,30.35c-1.66,1.28-3.64,1.92-5.61,1.92s-3.96-.64-5.61-1.92l-39.21-30.35,1.6-2.07.49-.62,1.42-1.84,39.2,30.35c.62.47,1.36.72,2.11.72s1.49-.24,2.1-.72l39.21-30.35c.97-.75,1.47-1.96,1.3-3.18-.16-1.21-.96-2.25-2.09-2.72l-70.13-28.96c-1.25-.52-1.47-2.19-.41-3.02l28.94-22.4c.63-.49,1.52-.49,2.15,0l36.03,27.89-1.5,1.94-.5.63-1.51,1.95-33.6-26-21.08,16.33,63.79,26.34c3.03,1.26,5.15,4.02,5.59,7.26.43,3.24-.9,6.47-3.48,8.46Z"/>
        </g>
      </g>
    </g>
  </g>
</svg>